<svg xmlns="http://www.w3.org/2000/svg" xmlns:xlink="http://www.w3.org/1999/xlink" width="287.582" height="71.651" viewBox="0 0 287.582 71.651"><defs><style>.a,.f{isolation:isolate;}.b{fill:url(#a);}.c{fill:url(#b);}.d{fill:url(#c);}.e{fill:url(#d);}.f{fill:#b2b2b2;opacity:0.45;mix-blend-mode:multiply;}.g{fill:#4f4b4c;}</style><linearGradient id="a" x1="0.49" y1="0.983" x2="0.505" y2="-0.103" gradientUnits="objectBoundingBox"><stop offset="0" stop-color="#661d3b"/><stop offset="0.35" stop-color="#97123b"/><stop offset="0.79" stop-color="#ce053a"/><stop offset="1" stop-color="#e4003a"/></linearGradient><linearGradient id="b" x1="0.5" y1="0.038" x2="0.5" y2="0.966" gradientUnits="objectBoundingBox"><stop offset="0" stop-color="#c41131"/><stop offset="0.61" stop-color="#dd3a3e"/><stop offset="1" stop-color="#ea5045"/></linearGradient><linearGradient id="c" x1="0.503" y1="0.056" x2="0.497" y2="0.992" gradientUnits="objectBoundingBox"><stop offset="0" stop-color="#eb5d0b"/><stop offset="0.61" stop-color="#f38e04"/><stop offset="1" stop-color="#f8aa00"/></linearGradient><linearGradient id="d" x1="0.5" y1="0.038" x2="0.5" y2="0.966" gradientUnits="objectBoundingBox"><stop offset="0" stop-color="#d2222f"/><stop offset="0.49" stop-color="#df3a3b"/><stop offset="1" stop-color="#ea5045"/></linearGradient></defs><g class="a" transform="translate(73.52 -109.48)"><g transform="translate(-73.52 109.48)"><path class="b" d="M154.02,130.629a21.149,21.149,0,0,0-21.149-21.149H109.48l26.165,42.108A21.149,21.149,0,0,0,154.02,130.629Z" transform="translate(-109.48 -109.48)"/><path class="c" d="M132.858,200.93H109.48v29.354h44.54L135.659,200.75A21.314,21.314,0,0,1,132.858,200.93Z" transform="translate(-109.48 -158.632)"/><path class="d" d="M135.645,151.588,109.48,109.48v42.3h23.378A21.312,21.312,0,0,0,135.645,151.588Z" transform="translate(-109.48 -109.48)"/><path class="e" d="M132.858,200.93H109.48v29.354h44.54L135.659,200.75A21.314,21.314,0,0,1,132.858,200.93Z" transform="translate(-109.48 -158.632)"/><path class="d" d="M135.645,151.588,109.48,109.48v42.3h23.378A21.312,21.312,0,0,0,135.645,151.588Z" transform="translate(-109.48 -109.48)"/><path class="f" d="M144.445,148.317,109.48,109.48l26.165,42.108A21.066,21.066,0,0,0,144.445,148.317Z" transform="translate(-109.48 -109.48)"/><path class="g" d="M272.21,116.11h8.671c5.741,0,9.538,3.041,9.538,7.679a7.227,7.227,0,0,1-5.127,6.991l5.662,9.691h-5.519l-4.975-8.971h-3.5v8.971H272.21Zm4.753,4.181v7.033h4.3c2.506,0,4.153-1.384,4.153-3.535s-1.634-3.5-4.153-3.5Z" transform="translate(-197.117 -113.051)"/><path class="g" d="M329.28,116.11h15.773v4.448H334.028v5.394h9.5v4.485h-9.5v5.538h11.024v4.485H329.28Z" transform="translate(-227.851 -113.051)"/><path class="g" d="M391.126,122.271a7.106,7.106,0,0,0-5.7-2.852c-2.284,0-3.613.992-3.613,2.432,0,4.338,12.81,2.395,12.81,10.95,0,4.407-3.724,7.559-9.312,7.559-4.979,0-7.9-1.975-9.5-4.37l3.383-3.152a7.453,7.453,0,0,0,6.193,3.041c2.663,0,4.153-1.066,4.153-2.815,0-4.712-12.806-2.584-12.806-11.075,0-4.153,3.692-7.07,8.892-7.07a10.469,10.469,0,0,1,8.768,4.1Z" transform="translate(-252.909 -112.41)"/><path class="g" d="M432.37,116.11h15.773v4.448H437.118v5.394h9.5v4.485h-9.5v5.538h11.024v4.485H432.37Z" transform="translate(-283.369 -113.051)"/><path class="g" d="M482.6,116.11h8.666c5.736,0,9.538,3.041,9.538,7.679a7.225,7.225,0,0,1-5.131,6.991l5.662,9.691h-5.51l-4.979-8.971h-3.5v8.971H482.6Zm4.748,4.181v7.033h4.3c2.51,0,4.153-1.384,4.153-3.535s-1.634-3.5-4.153-3.5Z" transform="translate(-310.42 -113.051)"/><path class="g" d="M544.593,135.3l6.682-19.192h4.979l-9,24.361h-5.588L532.66,116.11h5.233Z" transform="translate(-337.379 -113.051)"/><path class="g" d="M616.656,127.713A12.6,12.6,0,1,1,604.04,115a12.6,12.6,0,0,1,12.616,12.713Zm-5.053,0a7.555,7.555,0,1,0-7.563,7.942A7.778,7.778,0,0,0,611.6,127.713Z" transform="translate(-369.046 -112.453)"/><path class="g" d="M662.6,116.11h4.753v24.36H662.6Z" transform="translate(-407.357 -113.051)"/><path class="g" d="M692.08,116.11h8.666c5.736,0,9.538,3.041,9.538,7.679a7.225,7.225,0,0,1-5.132,6.991l5.662,9.691h-5.51l-4.956-8.971h-3.5v8.971H692.08Zm4.748,4.181v7.033h4.3c2.51,0,4.153-1.384,4.153-3.535s-1.634-3.5-4.153-3.5Z" transform="translate(-423.233 -113.051)"/><path class="g" d="M328.978,211.5a8.685,8.685,0,0,0-5.773-2.187,7.906,7.906,0,1,0,5.773,13.618l3.129,3.47c-2.15,2.335-5.053,3.429-8.939,3.429a12.389,12.389,0,0,1-12.409-12.593A12.519,12.519,0,0,1,323.168,204.6c4.075,0,6.922,1.283,8.939,3.318Z" transform="translate(-217.877 -160.706)"/><path class="g" d="M372.05,205.74h15.667v4.412H376.78v5.358h9.414v4.448h-9.428v5.505h10.95v4.453H372.05Z" transform="translate(-250.884 -161.32)"/><path class="g" d="M426.866,213.548v16.368H422.15V205.74h5.076L438.5,222.3V205.74h4.716v24.176H438.14Z" transform="translate(-277.865 -161.32)"/><path class="g" d="M493.869,210.152v19.764h-4.716V210.152H482V205.74h19.081v4.412Z" transform="translate(-310.097 -161.32)"/><path class="g" d="M537.63,205.74h8.6c5.694,0,9.469,3.018,9.469,7.619a7.143,7.143,0,0,1-5.076,6.922l5.621,9.617h-5.487l-4.942-8.9h-3.466v8.9H537.63Zm4.716,4.153v6.977h4.259c2.487,0,4.112-1.384,4.112-3.507s-1.624-3.47-4.112-3.47Z" transform="translate(-340.056 -161.32)"/><path class="g" d="M607.357,224.485H596.771l-2.114,5.431H589.72l9.728-24.176h5.51l9.728,24.176h-5.256Zm-5.321-13.765-3.692,9.58h7.383Z" transform="translate(-368.108 -161.32)"/><path class="g" d="M658.34,205.74h4.712v19.723h11.8v4.453H658.34Z" transform="translate(-405.063 -161.32)"/></g></g></svg>